<svg width="16" height="16" viewBox="0 0 16 16" fill="none" xmlns="http://www.w3.org/2000/svg">
<rect x="1" y="3" width="14" height="10" rx="2" fill="#E81123"/>
<rect x="4.46446" y="1.87627" width="10" height="10" rx="1" transform="rotate(15 4.46446 1.87627)" fill="white"/>
<rect x="8.56045" y="4.00907" width="1" height="8" rx="0.5" transform="rotate(15 8.56045 4.00907)" fill="#E81123"/>
<path d="M5.16926 9.03484C5.03119 8.7957 5.11312 8.4899 5.35227 8.35183V8.35183C5.59142 8.21376 5.89721 8.2957 6.03528 8.53484L7.53528 11.1329C7.67335 11.3721 7.59142 11.6779 7.35227 11.8159V11.8159C7.11312 11.954 6.80733 11.8721 6.66926 11.6329L5.16926 9.03484Z" fill="#E81123"/>
<path d="M9.45035 9.44991C9.6895 9.31184 9.99529 9.39378 10.1334 9.63293V9.63293C10.2714 9.87207 10.1895 10.1779 9.95035 10.3159L7.35227 11.8159C7.11313 11.954 6.80733 11.8721 6.66926 11.6329V11.6329C6.53119 11.3938 6.61313 11.088 6.85227 10.9499L9.45035 9.44991Z" fill="#E81123"/>
</svg>
