<svg width="16" height="16" viewBox="0 0 16 16" fill="none" xmlns="http://www.w3.org/2000/svg">
<g filter="url(#filter0_d)">
<rect x="1" y="3" width="14" height="10" rx="2" fill="url(#paint0_linear)"/>
</g>
<g filter="url(#filter1_d)">
<rect x="4.46447" y="1.87628" width="10" height="10" rx="1" transform="rotate(15 4.46447 1.87628)" fill="white"/>
<rect x="8.56046" y="4.00907" width="1" height="8" rx="0.5" transform="rotate(15 8.56046 4.00907)" fill="black"/>
<path d="M5.16926 9.03485C5.03119 8.7957 5.11313 8.4899 5.35227 8.35183V8.35183C5.59142 8.21376 5.89721 8.2957 6.03529 8.53485L7.53529 11.1329C7.67336 11.3721 7.59142 11.6779 7.35227 11.8159V11.8159C7.11313 11.954 6.80733 11.8721 6.66926 11.6329L5.16926 9.03485Z" fill="black"/>
<path d="M9.45035 9.44991C9.6895 9.31184 9.99529 9.39378 10.1334 9.63293V9.63293C10.2714 9.87207 10.1895 10.1779 9.95035 10.3159L7.35228 11.8159C7.11313 11.954 6.80734 11.8721 6.66926 11.6329V11.6329C6.53119 11.3938 6.61313 11.088 6.85228 10.9499L9.45035 9.44991Z" fill="black"/>
</g>
<defs>
<filter id="filter0_d" x="0" y="2.2" width="16" height="12" filterUnits="userSpaceOnUse" color-interpolation-filters="sRGB">
<feFlood flood-opacity="0" result="BackgroundImageFix"/>
<feColorMatrix in="SourceAlpha" type="matrix" values="0 0 0 0 0 0 0 0 0 0 0 0 0 0 0 0 0 0 127 0"/>
<feOffset dy="0.2"/>
<feGaussianBlur stdDeviation="0.5"/>
<feColorMatrix type="matrix" values="0 0 0 0 0 0 0 0 0 0 0 0 0 0 0 0 0 0 0.25 0"/>
<feBlend mode="normal" in2="BackgroundImageFix" result="effect1_dropShadow"/>
<feBlend mode="normal" in="SourceGraphic" in2="effect1_dropShadow" result="shape"/>
</filter>
<filter id="filter1_d" x="0.876274" y="1.07628" width="14.2474" height="14.2474" filterUnits="userSpaceOnUse" color-interpolation-filters="sRGB">
<feFlood flood-opacity="0" result="BackgroundImageFix"/>
<feColorMatrix in="SourceAlpha" type="matrix" values="0 0 0 0 0 0 0 0 0 0 0 0 0 0 0 0 0 0 127 0"/>
<feOffset dy="0.2"/>
<feGaussianBlur stdDeviation="0.5"/>
<feColorMatrix type="matrix" values="0 0 0 0 0 0 0 0 0 0 0 0 0 0 0 0 0 0 0.25 0"/>
<feBlend mode="normal" in2="BackgroundImageFix" result="effect1_dropShadow"/>
<feBlend mode="normal" in="SourceGraphic" in2="effect1_dropShadow" result="shape"/>
</filter>
<linearGradient id="paint0_linear" x1="8" y1="3" x2="8" y2="13" gradientUnits="userSpaceOnUse">
<stop stop-color="#E74856"/>
<stop offset="1" stop-color="#E81123"/>
</linearGradient>
</defs>
</svg>
