<svg width="16" height="16" viewBox="0 0 16 16" fill="none" xmlns="http://www.w3.org/2000/svg">
<rect x="4.11091" y="1.2639" width="11" height="11" rx="1.5" transform="rotate(15 4.11091 1.2639)" fill="white" stroke="#FFA800"/>
<path d="M6.76734 7.29324L7.6482 7.52927L6.86072 10.4682C6.78792 10.7399 6.66363 10.9595 6.48784 11.1271C6.31343 11.2951 6.10399 11.4044 5.85954 11.4551C5.61508 11.5057 5.35016 11.4928 5.06477 11.4164C4.81094 11.3484 4.59238 11.242 4.4091 11.0973C4.22756 10.9516 4.10105 10.7707 4.02957 10.5544C3.95846 10.3369 3.96109 10.0883 4.03746 9.80878L4.9245 10.0465C4.89746 10.1583 4.89455 10.2598 4.91576 10.3507C4.93871 10.4407 4.98222 10.5171 5.04628 10.5798C5.11209 10.6416 5.19713 10.6864 5.30141 10.7144C5.41117 10.7438 5.51003 10.7453 5.598 10.7188C5.6877 10.6914 5.76476 10.637 5.82918 10.5558C5.8936 10.4745 5.94383 10.3666 5.97986 10.2322L6.76734 7.29324ZM10.3467 9.55158C10.3747 9.38115 10.3386 9.23324 10.2384 9.10786C10.1382 8.98247 9.98105 8.89111 9.76701 8.83375C9.62157 8.79478 9.49326 8.78246 9.38207 8.79678C9.27125 8.80974 9.17952 8.84472 9.10689 8.90173C9.03564 8.9591 8.98788 9.03307 8.96361 9.12362C8.94065 9.19835 8.93878 9.26844 8.95801 9.33388C8.97861 9.3997 9.01427 9.46146 9.06498 9.51916C9.11606 9.57549 9.17803 9.6296 9.2509 9.68147C9.32413 9.73198 9.40395 9.77984 9.49036 9.82505L9.84478 10.0171C10.0176 10.1075 10.1717 10.2076 10.307 10.3174C10.4422 10.4272 10.5527 10.5472 10.6384 10.6775C10.7241 10.8078 10.7796 10.9492 10.8049 11.1015C10.8316 11.2543 10.8222 11.4186 10.7765 11.5946C10.706 11.8522 10.5802 12.0582 10.3991 12.2126C10.2198 12.366 9.99402 12.4622 9.72185 12.501C9.45143 12.5388 9.14471 12.5118 8.80169 12.4199C8.46142 12.3287 8.17903 12.1972 7.95451 12.0252C7.73137 11.8537 7.57653 11.6468 7.48998 11.4045C7.40518 11.1611 7.39997 10.887 7.47436 10.5819L8.3367 10.813C8.30843 10.9569 8.31729 11.0857 8.36327 11.1995C8.41099 11.3123 8.48879 11.4089 8.59666 11.4892C8.70627 11.5686 8.83791 11.6289 8.99158 11.67C9.14251 11.7105 9.27942 11.7236 9.40232 11.7095C9.5266 11.6958 9.63008 11.658 9.71278 11.5964C9.79548 11.5347 9.85043 11.4531 9.87764 11.3516C9.903 11.2569 9.8962 11.1698 9.85722 11.0902C9.81962 11.011 9.75338 10.9345 9.65849 10.8605C9.56497 10.7869 9.44634 10.711 9.3026 10.6328L8.87453 10.3946C8.54233 10.2129 8.29795 10.0026 8.14141 9.76359C7.98487 9.52459 7.94901 9.24955 8.03383 8.93846C8.10084 8.68289 8.2285 8.47813 8.41681 8.32418C8.60649 8.17059 8.83641 8.07264 9.10656 8.03033C9.37672 7.98801 9.66547 8.00803 9.97281 8.09038C10.2856 8.17421 10.5443 8.30088 10.7489 8.4704C10.9549 8.64028 11.0975 8.83805 11.1767 9.06369C11.2559 9.28933 11.264 9.52824 11.2008 9.78043L10.3467 9.55158Z" fill="#FFA800"/>
</svg>
