<svg width="16" height="16" viewBox="0 0 16 16" fill="none" xmlns="http://www.w3.org/2000/svg">
<rect x="4.11091" y="1.2639" width="11" height="11" rx="1.5" transform="rotate(15 4.11091 1.2639)" fill="white" stroke="url(#paint0_linear_916_76)"/>
<path fill-rule="evenodd" clip-rule="evenodd" d="M4.02903 8.65965C4.18073 8.9224 4.43061 9.11414 4.72367 9.19266L5.17959 9.31483L5.45705 8.27935C5.49537 8.13429 5.56196 7.99821 5.65298 7.87894C5.74401 7.75966 5.85769 7.65952 5.9875 7.58427C6.11731 7.50902 6.2607 7.46014 6.40944 7.44043C6.55819 7.42071 6.70936 7.43055 6.85429 7.46939L8.88273 8.01291C9.02753 8.05225 9.17867 8.06262 9.32748 8.04343C9.47629 8.02424 9.61985 7.97586 9.74992 7.90106C9.87999 7.82627 9.99402 7.72653 10.0855 7.60757C10.1769 7.48861 10.244 7.35277 10.2828 7.20784L10.671 5.75895C10.7099 5.61384 10.7198 5.46249 10.7002 5.31354C10.6806 5.1646 10.6319 5.02097 10.5567 4.89087C10.4816 4.76076 10.3816 4.64672 10.2624 4.55527C10.1433 4.46381 10.0072 4.39673 9.86211 4.35785L8.20844 3.91475C7.91537 3.83622 7.60311 3.87733 7.34035 4.02903C7.07759 4.18074 6.88586 4.43061 6.80733 4.72368L6.63341 5.37278L8.29093 5.81691C8.44162 5.85729 8.50625 6.11065 8.46587 6.26133L5.70719 5.52215C5.41412 5.44362 5.10186 5.48473 4.8391 5.63643C4.70899 5.71155 4.59496 5.81156 4.5035 5.93074C4.41205 6.04993 4.34496 6.18596 4.30608 6.33108L3.91474 7.79156C3.83622 8.08463 3.87733 8.39689 4.02903 8.65965ZM7.96826 4.81113C7.90718 5.03909 7.75248 5.12187 7.59793 5.08046C7.44725 5.04008 7.35467 4.89104 7.41575 4.66308C7.47683 4.43512 7.61289 4.42189 7.76357 4.46226C7.91812 4.50368 8.02934 4.58317 7.96826 4.81113Z" fill="#FFA800"/>
<path fill-rule="evenodd" clip-rule="evenodd" d="M11.2763 6.80734C11.5694 6.88586 11.8193 7.0776 11.971 7.34035C12.1227 7.60311 12.1638 7.91537 12.0853 8.20844L11.6939 9.66892C11.655 9.81404 11.5879 9.95007 11.4965 10.0693C11.405 10.1884 11.291 10.2885 11.1609 10.3636C11.0308 10.4387 10.8872 10.4874 10.7382 10.507C10.5893 10.5267 10.4379 10.5167 10.2928 10.4779L7.53412 9.73867C7.49375 9.88935 7.55838 10.1427 7.70906 10.1831L9.36659 10.6272L9.19266 11.2763C9.11414 11.5694 8.9224 11.8193 8.65964 11.971C8.39688 12.1227 8.08462 12.1638 7.79156 12.0853L6.13789 11.6422C5.84482 11.5636 5.59495 11.3719 5.44325 11.1091C5.29154 10.8464 5.25043 10.5341 5.32896 10.241L5.71719 8.79216C5.75602 8.64723 5.82308 8.51139 5.91453 8.39243C6.00597 8.27347 6.12 8.17373 6.25008 8.09894C6.38015 8.02414 6.52371 7.97576 6.67252 7.95657C6.82133 7.93738 6.97247 7.94775 7.11726 7.98709L9.14571 8.53061C9.29064 8.56945 9.44181 8.57929 9.59055 8.55957C9.7393 8.53986 9.88268 8.49098 10.0125 8.41573C10.1423 8.34048 10.256 8.24034 10.347 8.12106C10.438 8.00179 10.5046 7.86571 10.5429 7.72065L10.8204 6.68517L11.2763 6.80734ZM8.03174 11.1889C8.09282 10.9609 8.24752 10.8781 8.40206 10.9195C8.55275 10.9599 8.64533 11.109 8.58425 11.3369C8.5746 11.3729 8.55794 11.4067 8.53524 11.4363C8.51253 11.4659 8.48422 11.4907 8.45193 11.5094C8.41963 11.528 8.38397 11.5401 8.34699 11.545C8.31002 11.5499 8.27245 11.5474 8.23642 11.5377C8.08187 11.4963 7.97066 11.4168 8.03174 11.1889Z" fill="#0063D7"/>
<defs>
<linearGradient id="paint0_linear_916_76" x1="4.46446" y1="6.87627" x2="14.4645" y2="6.87627" gradientUnits="userSpaceOnUse">
<stop offset="0.5" stop-color="#FFA800"/>
<stop offset="0.5" stop-color="#0063D7"/>
</linearGradient>
</defs>
</svg>
