<svg width="16" height="16" viewBox="0 0 16 16" fill="none" xmlns="http://www.w3.org/2000/svg">
<rect x="4.11091" y="1.2639" width="11" height="11" rx="1.5" transform="rotate(15 4.11091 1.2639)" fill="white" stroke="#69797E"/>
<path d="M8.45982 6.28351C8.13709 6.19704 7.79463 6.21317 7.47576 6.32988C7.15688 6.44658 6.8759 6.65861 6.66836 6.93916C6.46082 7.21971 6.33603 7.55617 6.30978 7.906C6.28352 8.25583 6.35698 8.60331 6.52086 8.90451C6.68475 9.2057 6.93169 9.44709 7.23048 9.59813C7.52926 9.74917 7.86646 9.80309 8.19943 9.75307C8.5324 9.70305 8.8462 9.55133 9.10113 9.31711C9.35606 9.08288 9.54068 8.77667 9.63165 8.43719C9.75309 7.98198 9.69792 7.49959 9.47823 7.09584C9.25855 6.69209 8.89229 6.39995 8.45982 6.28351V6.28351ZM7.73709 8.98079C7.55267 8.93137 7.38781 8.82554 7.26335 8.67668C7.13889 8.52782 7.06042 8.34261 7.03787 8.14448C7.01532 7.94635 7.0497 7.74419 7.13666 7.56357C7.22362 7.38295 7.35925 7.23198 7.52641 7.12975C7.69356 7.02752 7.88474 6.97862 8.07575 6.98924C8.26677 6.99986 8.44904 7.06952 8.59953 7.18941C8.75002 7.30929 8.86196 7.47403 8.92119 7.66278C8.98043 7.85153 8.98431 8.05581 8.93233 8.2498C8.86237 8.50977 8.69724 8.73273 8.47317 8.86977C8.24909 9.00681 7.98437 9.04674 7.73709 8.98079ZM11.4948 8.26793C11.5038 8.17412 11.4926 8.07992 11.4621 7.99225C11.4316 7.90458 11.3825 7.82564 11.3185 7.76122L10.8398 7.27775C10.8257 7.2107 10.8095 7.14426 10.7911 7.07842L10.9852 6.39787C11.0113 6.30724 11.0177 6.21217 11.0041 6.11964C10.9905 6.02711 10.9572 5.93945 10.9066 5.8631C10.6742 5.51152 10.3829 5.20741 10.0462 4.96493C9.9731 4.91194 9.88917 4.87702 9.80055 4.8627C9.71192 4.84839 9.62086 4.85506 9.53401 4.88222L8.88324 5.08442C8.82031 5.06506 8.75672 5.04796 8.69257 5.03317L8.22962 4.53218C8.16808 4.46524 8.09264 4.41392 8.00881 4.38198C7.92498 4.35004 7.8349 4.3383 7.74516 4.34761C7.33237 4.38985 6.92818 4.50814 6.5514 4.69696C6.46931 4.73779 6.39655 4.79707 6.33843 4.87044C6.28031 4.94382 6.23831 5.02943 6.2155 5.12102L6.04351 5.80663C5.99462 5.85433 5.94728 5.90369 5.90149 5.95471L5.24445 6.13424C5.15667 6.15806 5.07461 6.20198 5.0043 6.26278C4.93398 6.32358 4.87719 6.39972 4.83809 6.48561C4.65793 6.87911 4.5452 7.30112 4.50514 7.73204C4.49617 7.82585 4.50735 7.92004 4.53786 8.00771C4.56837 8.09538 4.61743 8.17432 4.68146 8.23874L5.16022 8.72222C5.17423 8.78926 5.19045 8.85571 5.20887 8.92155L5.01477 9.6021C4.9887 9.69273 4.98224 9.7878 4.99584 9.88033C5.00945 9.97286 5.04278 10.0605 5.0934 10.1369C5.32576 10.4884 5.61705 10.7925 5.95374 11.035C6.02684 11.088 6.11077 11.1229 6.1994 11.1373C6.28802 11.1516 6.37909 11.1449 6.46593 11.1177L7.1167 10.9156C7.17963 10.9349 7.24333 10.9521 7.30736 10.9668L7.77031 11.4678C7.83186 11.5348 7.90732 11.5861 7.99116 11.618C8.075 11.6499 8.1651 11.6617 8.25484 11.6524C8.66764 11.6101 9.07183 11.4918 9.44863 11.303C9.53072 11.2622 9.60348 11.2029 9.6616 11.1295C9.71972 11.0562 9.76172 10.9706 9.78452 10.879L9.95652 10.1934C10.0054 10.1457 10.0527 10.0963 10.0985 10.0453L10.7556 9.86573C10.8433 9.84191 10.9254 9.79799 10.9957 9.73719C11.066 9.67639 11.1228 9.60025 11.1619 9.51437C11.3421 9.12086 11.4548 8.69885 11.4949 8.26794L11.4948 8.26793ZM10.532 9.14705L9.82251 9.34089C9.74425 9.36213 9.67435 9.40988 9.62388 9.47656C9.55464 9.55892 9.48001 9.63618 9.40054 9.70775C9.34285 9.75969 9.30156 9.82866 9.28238 9.90513L9.09672 10.6451C8.8305 10.7718 8.54795 10.8546 8.25939 10.8904L7.76007 10.3501L7.75752 10.3473C7.70232 10.2883 7.62946 10.2506 7.55037 10.2401C7.44953 10.2205 7.35033 10.1933 7.25351 10.1589C7.18288 10.1338 7.10596 10.1324 7.03339 10.155L6.33108 10.3732C6.09874 10.1983 5.89503 9.9858 5.72737 9.7433L5.93693 9.00852C5.96017 8.92754 5.95706 8.84146 5.92812 8.76391C5.89596 8.66185 5.87085 8.55734 5.85298 8.45117C5.84003 8.37413 5.80441 8.3038 5.75102 8.24987L5.23438 7.72806C5.26827 7.42653 5.3471 7.13123 5.468 6.85291L6.17746 6.65908C6.25629 6.63766 6.32664 6.58941 6.37723 6.52204C6.44615 6.44018 6.5204 6.36339 6.59943 6.29222C6.65712 6.24028 6.69841 6.17131 6.71759 6.09484L6.90325 5.35487C7.16947 5.22817 7.45202 5.14541 7.74058 5.10959L8.23991 5.64988L8.24245 5.65264C8.29767 5.71163 8.37052 5.74934 8.4496 5.75985C8.55044 5.77951 8.64964 5.80664 8.74646 5.84104C8.81709 5.86618 8.89402 5.86756 8.96659 5.84496L9.66887 5.62676C9.9012 5.8016 10.1049 6.01415 10.2726 6.25666L10.063 6.99144C10.0398 7.07242 10.0429 7.1585 10.0719 7.23605C10.104 7.33812 10.1291 7.44262 10.147 7.54879C10.1599 7.62583 10.1956 7.69617 10.2489 7.7501L10.7656 8.27191C10.7317 8.57344 10.6529 8.86874 10.532 9.14705V9.14705Z" fill="#69797E"/>
</svg>
