<svg width="16" height="16" viewBox="0 0 16 16" fill="none" xmlns="http://www.w3.org/2000/svg">
<g filter="url(#filter0_d)">
<rect x="1" y="3" width="14" height="10" rx="2" fill="url(#paint0_linear)"/>
</g>
<g filter="url(#filter1_d)">
<rect x="4.46446" y="1.87628" width="10" height="10" rx="1" transform="rotate(15 4.46446 1.87628)" fill="white"/>
<path d="M7.52097 9.20819L7.45033 9.94708C7.36411 9.96746 7.23231 9.97252 7.06072 9.96381C6.88545 9.95722 6.68587 9.92549 6.46274 9.8657C5.82543 9.68251 5.39565 9.36237 5.17183 8.91106C4.94589 8.45608 4.90862 7.94605 5.06003 7.38099C5.25388 6.71548 5.58547 6.2546 6.05266 5.99466C6.53223 5.73493 7.05716 5.67681 7.63092 5.83055C7.84825 5.88879 8.03117 5.95954 8.17833 6.03624C8.32549 6.11294 8.43131 6.18167 8.49501 6.24533L8.1336 6.92184L7.85283 6.74101C7.74469 6.68098 7.61527 6.63077 7.46169 6.58962C7.12632 6.49665 6.81941 6.52933 6.54462 6.68553C6.2677 6.83806 6.06773 7.13233 5.94334 7.56177C5.83774 7.95586 5.86266 8.29176 6.00784 8.57291C6.15379 8.85117 6.41251 9.04473 6.78265 9.14701L7.17737 9.21551C7.30819 9.22571 7.42105 9.22179 7.52097 9.20819V9.20819ZM7.97828 10.2718L8.46562 9.16004L8.03096 9.04357L8.28477 8.49042L8.71944 8.60688L8.96746 8.05217L8.53279 7.93571L8.78661 7.38255L9.22127 7.49902L9.70862 6.38727L10.2882 6.54256L9.80083 7.65431L10.0906 7.73196L10.578 6.62021L11.1575 6.7755L10.6702 7.88725L11.1048 8.00372L10.851 8.55687L10.4163 8.4404L10.1683 8.99511L10.603 9.11158L10.3492 9.66474L9.91451 9.54827L9.42716 10.66L8.84761 10.5047L9.33496 9.39298L9.04518 9.31533L8.55783 10.4271L7.97828 10.2718ZM9.29899 8.76218L9.58877 8.83982L9.83679 8.28511L9.54701 8.20747L9.29899 8.76218Z" fill="black"/>
</g>
<defs>
<filter id="filter0_d" x="0" y="2.2" width="16" height="12" filterUnits="userSpaceOnUse" color-interpolation-filters="sRGB">
<feFlood flood-opacity="0" result="BackgroundImageFix"/>
<feColorMatrix in="SourceAlpha" type="matrix" values="0 0 0 0 0 0 0 0 0 0 0 0 0 0 0 0 0 0 127 0"/>
<feOffset dy="0.2"/>
<feGaussianBlur stdDeviation="0.5"/>
<feColorMatrix type="matrix" values="0 0 0 0 0 0 0 0 0 0 0 0 0 0 0 0 0 0 0.25 0"/>
<feBlend mode="normal" in2="BackgroundImageFix" result="effect1_dropShadow"/>
<feBlend mode="normal" in="SourceGraphic" in2="effect1_dropShadow" result="shape"/>
</filter>
<filter id="filter1_d" x="0.876274" y="1.07628" width="14.2474" height="14.2474" filterUnits="userSpaceOnUse" color-interpolation-filters="sRGB">
<feFlood flood-opacity="0" result="BackgroundImageFix"/>
<feColorMatrix in="SourceAlpha" type="matrix" values="0 0 0 0 0 0 0 0 0 0 0 0 0 0 0 0 0 0 127 0"/>
<feOffset dy="0.2"/>
<feGaussianBlur stdDeviation="0.5"/>
<feColorMatrix type="matrix" values="0 0 0 0 0 0 0 0 0 0 0 0 0 0 0 0 0 0 0.25 0"/>
<feBlend mode="normal" in2="BackgroundImageFix" result="effect1_dropShadow"/>
<feBlend mode="normal" in="SourceGraphic" in2="effect1_dropShadow" result="shape"/>
</filter>
<linearGradient id="paint0_linear" x1="8" y1="3" x2="8" y2="13" gradientUnits="userSpaceOnUse">
<stop stop-color="#00CC6A"/>
<stop offset="1" stop-color="#10893E"/>
</linearGradient>
</defs>
</svg>
