<svg width="16" height="16" viewBox="0 0 16 16" fill="none" xmlns="http://www.w3.org/2000/svg">
<rect x="4.09415" y="1.3264" width="11" height="11" rx="1.5" transform="rotate(15 4.09415 1.3264)" fill="white" stroke="#00AF06"/>
<path d="M8.24903 7.2013L7.34759 6.95976C7.36238 6.83873 7.35652 6.72613 7.33002 6.62197C7.30388 6.51644 7.25967 6.42077 7.19737 6.33496C7.13507 6.24915 7.05637 6.17512 6.96129 6.11288C6.86758 6.05101 6.76035 6.0039 6.63961 5.97154C6.42145 5.91309 6.2169 5.91637 6.02595 5.98138C5.83538 6.04501 5.66792 6.16779 5.52359 6.3497C5.37963 6.53024 5.2685 6.76663 5.19019 7.05888C5.10968 7.35936 5.08662 7.62377 5.12103 7.8521C5.1568 8.0808 5.24167 8.26898 5.37563 8.41664C5.5096 8.56429 5.68291 8.66662 5.89558 8.7236C6.01495 8.75558 6.12963 8.7694 6.23961 8.76505C6.35097 8.76107 6.45453 8.73955 6.55029 8.7005C6.64641 8.66008 6.7323 8.60295 6.80797 8.52911C6.88501 8.45564 6.94889 8.3654 6.99962 8.25841L7.89996 8.50407C7.8248 8.69128 7.71648 8.86225 7.57502 9.01699C7.4353 9.17073 7.2683 9.2973 7.07402 9.39671C6.88148 9.49512 6.66647 9.55662 6.429 9.58122C6.19327 9.60482 5.94026 9.58041 5.66996 9.50798C5.29402 9.40725 4.98066 9.23211 4.72988 8.98257C4.48048 8.73339 4.31322 8.42461 4.22811 8.05622C4.14437 7.6882 4.1639 7.27506 4.28669 6.81679C4.40985 6.35715 4.60107 5.98928 4.86034 5.71317C5.11962 5.43706 5.42005 5.25433 5.76163 5.16498C6.10358 5.07425 6.45978 5.07852 6.83024 5.17778C7.07446 5.24322 7.29166 5.33819 7.48183 5.46267C7.67337 5.58752 7.83245 5.7375 7.95906 5.91259C8.08603 6.08632 8.17492 6.28146 8.22572 6.49801C8.27789 6.71492 8.28566 6.94936 8.24903 7.2013ZM9.73468 10.5354L11.5556 6.5057L12.2142 6.68217L10.3933 10.7118L9.73468 10.5354ZM8.12756 8.98416L8.41311 8.3548L11.706 9.23714L11.4205 9.8665L8.12756 8.98416ZM8.25286 10.1383L10.0738 6.10865L10.7324 6.28512L8.91145 10.3148L8.25286 10.1383ZM8.761 7.58333L9.0486 6.95452L12.3415 7.83686L12.0539 8.46567L8.761 7.58333Z" fill="#00AF06"/>
</svg>
