<svg width="16" height="16" viewBox="0 0 16 16" fill="none" xmlns="http://www.w3.org/2000/svg">
<g filter="url(#filter0_d)">
<rect x="1" y="3" width="14" height="10" rx="2" fill="white"/>
</g>
<mask id="mask0" mask-type="alpha" maskUnits="userSpaceOnUse" x="1" y="3" width="14" height="10">
<rect x="1" y="3" width="14" height="10" rx="2" fill="white"/>
</mask>
<g mask="url(#mask0)">
<rect x="8" y="2" width="8" height="12" fill="url(#paint0_linear)"/>
<rect y="2" width="8" height="12" fill="url(#paint1_linear)"/>
</g>
<g filter="url(#filter1_d)">
<rect x="4.46447" y="1.87628" width="10" height="10" rx="1" transform="rotate(15 4.46447 1.87628)" fill="white"/>
<path d="M11.2763 6.80734C11.5694 6.88586 11.8193 7.0776 11.971 7.34035C12.1227 7.60311 12.1638 7.91537 12.0853 8.20844L11.6939 9.66892C11.655 9.81404 11.588 9.95007 11.4965 10.0693C11.405 10.1884 11.291 10.2885 11.1609 10.3636C11.0308 10.4387 10.8872 10.4874 10.7382 10.507C10.5893 10.5267 10.4379 10.5167 10.2928 10.4779L7.53413 9.73867C7.49375 9.88935 7.55838 10.1427 7.70906 10.1831L9.36659 10.6272L9.19267 11.2763C9.11414 11.5694 8.9224 11.8193 8.65965 11.971C8.39689 12.1227 8.08463 12.1638 7.79156 12.0853L6.13789 11.6422C5.84482 11.5636 5.59495 11.3719 5.44325 11.1091C5.29154 10.8464 5.25043 10.5341 5.32896 10.241L5.71719 8.79216C5.75602 8.64723 5.82309 8.51139 5.91453 8.39243C6.00598 8.27347 6.12 8.17373 6.25008 8.09894C6.38015 8.02414 6.52371 7.97576 6.67252 7.95657C6.82133 7.93738 6.97247 7.94775 7.11726 7.98709L9.14571 8.53061C9.29064 8.56945 9.44181 8.57929 9.59055 8.55957C9.7393 8.53986 9.88269 8.49098 10.0125 8.41573C10.1423 8.34048 10.256 8.24034 10.347 8.12106C10.438 8.00179 10.5046 7.86571 10.543 7.72065L10.8204 6.68517L11.2763 6.80734ZM8.40207 10.9195C8.24752 10.8781 8.09282 10.9609 8.03174 11.1889C7.97066 11.4168 8.08187 11.4963 8.23642 11.5377C8.27245 11.5474 8.31002 11.5499 8.347 11.545C8.38397 11.5401 8.41963 11.528 8.45193 11.5094C8.48423 11.4907 8.51254 11.4659 8.53524 11.4363C8.55794 11.4067 8.5746 11.3729 8.58425 11.3369C8.64533 11.109 8.55275 10.9599 8.40207 10.9195ZM4.72368 9.19266C4.43061 9.11414 4.18074 8.9224 4.02903 8.65965C3.87733 8.39689 3.83622 8.08463 3.91475 7.79156L4.30608 6.33108C4.34497 6.18596 4.41205 6.04993 4.50351 5.93074C4.59496 5.81156 4.709 5.71155 4.8391 5.63643C5.10186 5.48473 5.41412 5.44362 5.70719 5.52215L8.46588 6.26133C8.50625 6.11065 8.44162 5.85729 8.29094 5.81691L6.63341 5.37278L6.80734 4.72368C6.88586 4.43061 7.0776 4.18074 7.34036 4.02903C7.60311 3.87733 7.91538 3.83622 8.20844 3.91475L9.86211 4.35785C10.0072 4.39673 10.1433 4.46381 10.2624 4.55527C10.3816 4.64672 10.4816 4.76076 10.5568 4.89087C10.6319 5.02097 10.6806 5.1646 10.7002 5.31354C10.7198 5.46249 10.7099 5.61384 10.671 5.75895L10.2828 7.20784C10.244 7.35277 10.1769 7.48861 10.0855 7.60757C9.99403 7.72653 9.88 7.82627 9.74992 7.90106C9.61985 7.97586 9.47629 8.02424 9.32748 8.04343C9.17867 8.06262 9.02753 8.05225 8.88274 8.01291L6.85429 7.46939C6.70936 7.43055 6.55819 7.42071 6.40945 7.44043C6.2607 7.46014 6.11732 7.50902 5.98751 7.58427C5.85769 7.65952 5.74402 7.75966 5.65299 7.87894C5.56196 7.99821 5.49538 8.13429 5.45705 8.27935L5.1796 9.31483L4.72368 9.19266V9.19266ZM7.59793 5.08046C7.75248 5.12187 7.90718 5.03909 7.96826 4.81113C8.02934 4.58317 7.91813 4.50368 7.76358 4.46226C7.61289 4.42189 7.47683 4.43512 7.41575 4.66308C7.35467 4.89104 7.44725 5.04008 7.59793 5.08046Z" fill="black"/>
</g>
<defs>
<filter id="filter0_d" x="0" y="2.2" width="16" height="12" filterUnits="userSpaceOnUse" color-interpolation-filters="sRGB">
<feFlood flood-opacity="0" result="BackgroundImageFix"/>
<feColorMatrix in="SourceAlpha" type="matrix" values="0 0 0 0 0 0 0 0 0 0 0 0 0 0 0 0 0 0 127 0"/>
<feOffset dy="0.2"/>
<feGaussianBlur stdDeviation="0.5"/>
<feColorMatrix type="matrix" values="0 0 0 0 0 0 0 0 0 0 0 0 0 0 0 0 0 0 0.25 0"/>
<feBlend mode="normal" in2="BackgroundImageFix" result="effect1_dropShadow"/>
<feBlend mode="normal" in="SourceGraphic" in2="effect1_dropShadow" result="shape"/>
</filter>
<filter id="filter1_d" x="0.876276" y="1.07628" width="14.2474" height="14.2474" filterUnits="userSpaceOnUse" color-interpolation-filters="sRGB">
<feFlood flood-opacity="0" result="BackgroundImageFix"/>
<feColorMatrix in="SourceAlpha" type="matrix" values="0 0 0 0 0 0 0 0 0 0 0 0 0 0 0 0 0 0 127 0"/>
<feOffset dy="0.2"/>
<feGaussianBlur stdDeviation="0.5"/>
<feColorMatrix type="matrix" values="0 0 0 0 0 0 0 0 0 0 0 0 0 0 0 0 0 0 0.25 0"/>
<feBlend mode="normal" in2="BackgroundImageFix" result="effect1_dropShadow"/>
<feBlend mode="normal" in="SourceGraphic" in2="effect1_dropShadow" result="shape"/>
</filter>
<linearGradient id="paint0_linear" x1="12" y1="2" x2="12" y2="14" gradientUnits="userSpaceOnUse">
<stop stop-color="#0078D7"/>
<stop offset="1" stop-color="#0063B1"/>
</linearGradient>
<linearGradient id="paint1_linear" x1="4" y1="2" x2="4" y2="14" gradientUnits="userSpaceOnUse">
<stop stop-color="#FFB900"/>
<stop offset="1" stop-color="#FF8C00"/>
</linearGradient>
</defs>
</svg>
