<svg width="16" height="16" viewBox="0 0 16 16" fill="none" xmlns="http://www.w3.org/2000/svg">
<rect x="1" y="2.5" width="14" height="11" rx="2" fill="#C4C4C4"/>
<mask id="mask0" mask-type="alpha" maskUnits="userSpaceOnUse" x="1" y="2" width="14" height="12">
<rect x="1" y="2.5" width="14" height="11" rx="2" fill="#C4C4C4"/>
</mask>
<g mask="url(#mask0)">
<rect x="-0.584908" y="-1.48887" width="16.9057" height="20.1143" rx="2" fill="url(#paint0_linear)"/>
<rect width="17.1394" height="19.9155" rx="2" transform="matrix(0.952754 -0.303743 0.219703 0.975567 6.10027 0.888527)" fill="url(#paint1_linear)"/>
</g>
<rect x="4.84491" y="1.67186" width="10" height="10" rx="1" transform="rotate(18.5 4.84491 1.67186)" fill="white"/>
<rect x="9.26922" y="4.2067" width="4" height="1" rx="0.5" transform="rotate(18.5 9.26922 4.2067)" fill="black"/>
<rect x="10.845" y="8.95191" width="4" height="1" rx="0.5" transform="rotate(-71.5 10.845 8.95191)" fill="black"/>
<rect x="6.73078" y="11.7933" width="4" height="1" rx="0.5" transform="rotate(-161.5 6.73078 11.7933)" fill="black"/>
<rect x="5.15503" y="7.04809" width="4" height="1" rx="0.5" transform="rotate(108.5 5.15503 7.04809)" fill="black"/>
<defs>
<linearGradient id="paint0_linear" x1="7.86792" y1="-1.48887" x2="7.86792" y2="18.6254" gradientUnits="userSpaceOnUse">
<stop stop-color="#E74856"/>
<stop offset="1" stop-color="#E81123"/>
</linearGradient>
<linearGradient id="paint1_linear" x1="8.56969" y1="0" x2="8.56969" y2="19.9155" gradientUnits="userSpaceOnUse">
<stop stop-color="#0078D7"/>
<stop offset="1" stop-color="#0063B1"/>
</linearGradient>
</defs>
</svg>
